<mxfile host="app.diagrams.net" agent="Mozilla/5.0 (Macintosh; Intel Mac OS X 10_15_7) AppleWebKit/537.36 (KHTML, like Gecko) Chrome/127.0.0.0 Safari/537.36" version="24.7.10">
  <diagram name="Page-1" id="jPP5vMGqfO3vpC6-F1vL">
    <mxGraphModel dx="1542" dy="1752" grid="1" gridSize="10" guides="1" tooltips="1" connect="1" arrows="1" fold="1" page="1" pageScale="1" pageWidth="850" pageHeight="1100" math="0" shadow="0">
      <root>
        <mxCell id="0" />
        <mxCell id="1" parent="0" />
        <mxCell id="2" value="System" style="rounded=1;absoluteArcSize=1;arcSize=14;whiteSpace=wrap;strokeWidth=2;" parent="1" vertex="1">
          <mxGeometry x="-120" y="-286" width="105" height="70" as="geometry" />
        </mxCell>
        <mxCell id="3" value="Staff" style="rounded=1;absoluteArcSize=1;arcSize=14;whiteSpace=wrap;strokeWidth=2;" parent="1" vertex="1">
          <mxGeometry x="-110" y="-320" width="142" height="34" as="geometry" />
        </mxCell>
        <mxCell id="FtNmCXb7obRXt43E1ogc-18" style="edgeStyle=orthogonalEdgeStyle;rounded=0;orthogonalLoop=1;jettySize=auto;html=1;exitX=1;exitY=0.25;exitDx=0;exitDy=0;entryX=0;entryY=0.25;entryDx=0;entryDy=0;" edge="1" parent="1" source="4" target="FtNmCXb7obRXt43E1ogc-13">
          <mxGeometry relative="1" as="geometry" />
        </mxCell>
        <mxCell id="FtNmCXb7obRXt43E1ogc-27" value="&lt;font size=&quot;3&quot;&gt;Order enquire&lt;/font&gt;" style="edgeLabel;html=1;align=center;verticalAlign=middle;resizable=0;points=[];" vertex="1" connectable="0" parent="FtNmCXb7obRXt43E1ogc-18">
          <mxGeometry x="-0.0184" y="-1" relative="1" as="geometry">
            <mxPoint y="1" as="offset" />
          </mxGeometry>
        </mxCell>
        <mxCell id="4" value="Customer /Delivery" style="whiteSpace=wrap;strokeWidth=2;fontSize=30;" parent="1" vertex="1">
          <mxGeometry x="-70" y="-515" width="163.5" height="100" as="geometry" />
        </mxCell>
        <mxCell id="6" value="Beverage and Food serving" style="rounded=1;absoluteArcSize=1;arcSize=14;whiteSpace=wrap;strokeWidth=2;" parent="1" vertex="1">
          <mxGeometry x="-160" y="-250" width="206" height="34" as="geometry" />
        </mxCell>
        <mxCell id="7" value="Destination" style="whiteSpace=wrap;strokeWidth=2;" parent="1" vertex="1">
          <mxGeometry x="-87" y="-180" width="96" height="34" as="geometry" />
        </mxCell>
        <mxCell id="FtNmCXb7obRXt43E1ogc-19" style="edgeStyle=orthogonalEdgeStyle;rounded=0;orthogonalLoop=1;jettySize=auto;html=1;exitX=0;exitY=0.75;exitDx=0;exitDy=0;entryX=1;entryY=0.75;entryDx=0;entryDy=0;" edge="1" parent="1" source="FtNmCXb7obRXt43E1ogc-13" target="4">
          <mxGeometry relative="1" as="geometry" />
        </mxCell>
        <mxCell id="FtNmCXb7obRXt43E1ogc-28" value="&lt;font style=&quot;font-size: 24px;&quot;&gt;Pick up&lt;/font&gt;" style="edgeLabel;html=1;align=center;verticalAlign=middle;resizable=0;points=[];" vertex="1" connectable="0" parent="FtNmCXb7obRXt43E1ogc-19">
          <mxGeometry x="-0.0482" relative="1" as="geometry">
            <mxPoint as="offset" />
          </mxGeometry>
        </mxCell>
        <mxCell id="FtNmCXb7obRXt43E1ogc-20" style="edgeStyle=orthogonalEdgeStyle;rounded=0;orthogonalLoop=1;jettySize=auto;html=1;exitX=1;exitY=0.25;exitDx=0;exitDy=0;entryX=0;entryY=0.25;entryDx=0;entryDy=0;" edge="1" parent="1" source="FtNmCXb7obRXt43E1ogc-13" target="FtNmCXb7obRXt43E1ogc-16">
          <mxGeometry relative="1" as="geometry" />
        </mxCell>
        <mxCell id="FtNmCXb7obRXt43E1ogc-29" value="&lt;font style=&quot;font-size: 24px;&quot;&gt;Report&lt;/font&gt;" style="edgeLabel;html=1;align=center;verticalAlign=middle;resizable=0;points=[];" vertex="1" connectable="0" parent="FtNmCXb7obRXt43E1ogc-20">
          <mxGeometry x="0.0847" y="-1" relative="1" as="geometry">
            <mxPoint as="offset" />
          </mxGeometry>
        </mxCell>
        <mxCell id="FtNmCXb7obRXt43E1ogc-25" style="edgeStyle=orthogonalEdgeStyle;rounded=0;orthogonalLoop=1;jettySize=auto;html=1;exitX=0.75;exitY=0;exitDx=0;exitDy=0;entryX=0.75;entryY=1;entryDx=0;entryDy=0;" edge="1" parent="1" source="FtNmCXb7obRXt43E1ogc-13" target="FtNmCXb7obRXt43E1ogc-17">
          <mxGeometry relative="1" as="geometry" />
        </mxCell>
        <mxCell id="FtNmCXb7obRXt43E1ogc-26" value="&lt;font style=&quot;font-size: 18px;&quot;&gt;Compensation&lt;/font&gt;" style="edgeLabel;html=1;align=center;verticalAlign=middle;resizable=0;points=[];" vertex="1" connectable="0" parent="FtNmCXb7obRXt43E1ogc-25">
          <mxGeometry x="-0.1785" y="-3" relative="1" as="geometry">
            <mxPoint y="1" as="offset" />
          </mxGeometry>
        </mxCell>
        <mxCell id="FtNmCXb7obRXt43E1ogc-13" value="&lt;font style=&quot;font-size: 24px;&quot;&gt;System&lt;/font&gt;" style="swimlane;html=1;startSize=50;fontStyle=0;collapsible=0;horizontal=1;swimlaneLine=1;strokeWidth=2;swimlaneFillColor=#ffffff;whiteSpace=wrap;" vertex="1" parent="1">
          <mxGeometry x="360" y="-505" width="185" height="90" as="geometry" />
        </mxCell>
        <mxCell id="FtNmCXb7obRXt43E1ogc-21" style="edgeStyle=orthogonalEdgeStyle;rounded=0;orthogonalLoop=1;jettySize=auto;html=1;exitX=0;exitY=0.75;exitDx=0;exitDy=0;entryX=1;entryY=0.75;entryDx=0;entryDy=0;" edge="1" parent="1" source="FtNmCXb7obRXt43E1ogc-16" target="FtNmCXb7obRXt43E1ogc-13">
          <mxGeometry relative="1" as="geometry" />
        </mxCell>
        <mxCell id="FtNmCXb7obRXt43E1ogc-30" value="&lt;span style=&quot;font-size: 24px;&quot;&gt;Balance update&lt;/span&gt;" style="edgeLabel;html=1;align=center;verticalAlign=middle;resizable=0;points=[];" vertex="1" connectable="0" parent="FtNmCXb7obRXt43E1ogc-21">
          <mxGeometry x="-0.0258" y="1" relative="1" as="geometry">
            <mxPoint as="offset" />
          </mxGeometry>
        </mxCell>
        <mxCell id="FtNmCXb7obRXt43E1ogc-16" value="Manager or Owner" style="whiteSpace=wrap;strokeWidth=2;fontSize=30;" vertex="1" parent="1">
          <mxGeometry x="800" y="-505" width="163.5" height="100" as="geometry" />
        </mxCell>
        <mxCell id="FtNmCXb7obRXt43E1ogc-22" style="edgeStyle=orthogonalEdgeStyle;rounded=0;orthogonalLoop=1;jettySize=auto;html=1;exitX=0.25;exitY=1;exitDx=0;exitDy=0;entryX=0.25;entryY=0;entryDx=0;entryDy=0;" edge="1" parent="1" source="FtNmCXb7obRXt43E1ogc-17" target="FtNmCXb7obRXt43E1ogc-13">
          <mxGeometry relative="1" as="geometry" />
        </mxCell>
        <mxCell id="FtNmCXb7obRXt43E1ogc-24" value="&lt;font style=&quot;font-size: 18px;&quot;&gt;Serve&amp;nbsp;&lt;/font&gt;" style="edgeLabel;html=1;align=center;verticalAlign=middle;resizable=0;points=[];" vertex="1" connectable="0" parent="FtNmCXb7obRXt43E1ogc-22">
          <mxGeometry x="0.068" y="-1" relative="1" as="geometry">
            <mxPoint as="offset" />
          </mxGeometry>
        </mxCell>
        <mxCell id="FtNmCXb7obRXt43E1ogc-17" value="Staff" style="whiteSpace=wrap;strokeWidth=2;fontSize=30;" vertex="1" parent="1">
          <mxGeometry x="370.75" y="-730" width="163.5" height="100" as="geometry" />
        </mxCell>
        <mxCell id="FtNmCXb7obRXt43E1ogc-40" style="edgeStyle=orthogonalEdgeStyle;rounded=0;orthogonalLoop=1;jettySize=auto;html=1;exitX=1;exitY=0;exitDx=0;exitDy=0;entryX=0;entryY=0;entryDx=0;entryDy=0;" edge="1" parent="1" source="FtNmCXb7obRXt43E1ogc-32" target="FtNmCXb7obRXt43E1ogc-35">
          <mxGeometry relative="1" as="geometry">
            <Array as="points">
              <mxPoint x="580" y="-40" />
              <mxPoint x="580" y="-40" />
            </Array>
          </mxGeometry>
        </mxCell>
        <mxCell id="FtNmCXb7obRXt43E1ogc-42" value="Stock order" style="edgeLabel;html=1;align=center;verticalAlign=middle;resizable=0;points=[];" vertex="1" connectable="0" parent="FtNmCXb7obRXt43E1ogc-40">
          <mxGeometry x="-0.0137" y="-1" relative="1" as="geometry">
            <mxPoint as="offset" />
          </mxGeometry>
        </mxCell>
        <mxCell id="FtNmCXb7obRXt43E1ogc-32" value="&lt;font style=&quot;font-size: 14px;&quot;&gt;Processes&amp;nbsp;&lt;/font&gt;" style="swimlane;html=1;startSize=50;fontStyle=0;collapsible=0;horizontal=1;swimlaneLine=1;strokeWidth=2;swimlaneFillColor=#ffffff;whiteSpace=wrap;" vertex="1" parent="1">
          <mxGeometry x="360" y="-40" width="160" height="100" as="geometry" />
        </mxCell>
        <mxCell id="FtNmCXb7obRXt43E1ogc-37" style="edgeStyle=orthogonalEdgeStyle;rounded=0;orthogonalLoop=1;jettySize=auto;html=1;exitX=1;exitY=0;exitDx=0;exitDy=0;entryX=0;entryY=0;entryDx=0;entryDy=0;" edge="1" parent="1" source="FtNmCXb7obRXt43E1ogc-33" target="FtNmCXb7obRXt43E1ogc-32">
          <mxGeometry relative="1" as="geometry">
            <Array as="points">
              <mxPoint x="300" y="-40" />
              <mxPoint x="300" y="-40" />
            </Array>
          </mxGeometry>
        </mxCell>
        <mxCell id="FtNmCXb7obRXt43E1ogc-38" value="order processing" style="edgeLabel;html=1;align=center;verticalAlign=middle;resizable=0;points=[];" vertex="1" connectable="0" parent="FtNmCXb7obRXt43E1ogc-37">
          <mxGeometry x="0.0059" relative="1" as="geometry">
            <mxPoint as="offset" />
          </mxGeometry>
        </mxCell>
        <mxCell id="FtNmCXb7obRXt43E1ogc-33" value="Customer&amp;nbsp;" style="html=1;dashed=0;whiteSpace=wrap;" vertex="1" parent="1">
          <mxGeometry x="160" y="-40" width="80" height="40" as="geometry" />
        </mxCell>
        <mxCell id="FtNmCXb7obRXt43E1ogc-41" style="edgeStyle=orthogonalEdgeStyle;rounded=0;orthogonalLoop=1;jettySize=auto;html=1;exitX=0;exitY=1;exitDx=0;exitDy=0;entryX=1;entryY=1;entryDx=0;entryDy=0;" edge="1" parent="1" source="FtNmCXb7obRXt43E1ogc-35" target="FtNmCXb7obRXt43E1ogc-32">
          <mxGeometry relative="1" as="geometry" />
        </mxCell>
        <mxCell id="FtNmCXb7obRXt43E1ogc-44" value="Inventory" style="edgeLabel;html=1;align=center;verticalAlign=middle;resizable=0;points=[];" vertex="1" connectable="0" parent="FtNmCXb7obRXt43E1ogc-41">
          <mxGeometry x="0.2481" y="1" relative="1" as="geometry">
            <mxPoint as="offset" />
          </mxGeometry>
        </mxCell>
        <mxCell id="FtNmCXb7obRXt43E1ogc-35" value="Supplier" style="html=1;dashed=0;whiteSpace=wrap;" vertex="1" parent="1">
          <mxGeometry x="640" y="-40" width="80" height="40" as="geometry" />
        </mxCell>
        <mxCell id="FtNmCXb7obRXt43E1ogc-39" style="edgeStyle=orthogonalEdgeStyle;rounded=0;orthogonalLoop=1;jettySize=auto;html=1;exitX=0;exitY=1;exitDx=0;exitDy=0;entryX=0.916;entryY=0.994;entryDx=0;entryDy=0;entryPerimeter=0;" edge="1" parent="1" source="FtNmCXb7obRXt43E1ogc-32" target="FtNmCXb7obRXt43E1ogc-33">
          <mxGeometry relative="1" as="geometry" />
        </mxCell>
        <mxCell id="FtNmCXb7obRXt43E1ogc-43" value="Order Confirmation" style="edgeLabel;html=1;align=center;verticalAlign=middle;resizable=0;points=[];" vertex="1" connectable="0" parent="FtNmCXb7obRXt43E1ogc-39">
          <mxGeometry x="-0.2774" y="2" relative="1" as="geometry">
            <mxPoint as="offset" />
          </mxGeometry>
        </mxCell>
      </root>
    </mxGraphModel>
  </diagram>
</mxfile>
